<svg id="圖層_1" data-name="圖層 1" xmlns="http://www.w3.org/2000/svg" viewBox="0 0 93.43 84.52"><defs><style>.cls-1{fill:#e4d7ca;}</style></defs><title>footer-rabbit</title><path class="cls-1" d="M9.48,51.22C6.72,49.5,4.34,37.77,8.94,21.14S13.46-3.45,19.88,1.41s3.26,30.75,3.26,30.75Z"/><path class="cls-1" d="M73.51,24.4c-.15,3.68-7.6,13.91-7.6,13.91l-7.17-8.65C59,28.23,62.59,7,74.17,6.17c0,0,19.49,13.5,19.26,26.3,0,0-5.14,8-13.43,0a41.08,41.08,0,0,1-6.54-8,28.33,28.33,0,0,1-2.14-4.2,14.48,14.48,0,0,1-.82-2.56"/><path class="cls-1" d="M24,29.41s-21.61,11.38-19,37.9c0,0-10,6.15-1.44,10.43s40.3,16.77,63.21-9.24c0,0,16.85-11.18,2-21.19C68.66,47.31,67.32,11.62,24,29.41Z"/><ellipse class="cls-1" cx="41.01" cy="62" rx="9.7" ry="5.69" transform="translate(-22.17 101.16) rotate(-88.31)"/><ellipse class="cls-1" cx="41.83" cy="63.49" rx="8.38" ry="4.82" transform="translate(-28.58 92.18) rotate(-78.79)"/><ellipse class="cls-1" cx="16.6" cy="62.56" rx="9.26" ry="5.67" transform="translate(-46.82 75.47) rotate(-86.64)"/><ellipse class="cls-1" cx="17.53" cy="63.79" rx="8.04" ry="4.77" transform="translate(-48.6 65.9) rotate(-76.46)"/><path class="cls-1" d="M22.67,70.27S17.2,71,19,75.14a0,0,0,0,0,0,0c.19.09,4.22,1.92,5.57-2.13,0,0,.05,0,.05,0,.06.84.64,5.12,5.79,2.1l0,0c.08-.16,1.49-3.08-2.78-4.17"/><path class="cls-1" d="M22.67,70.27s3.18-2.76,5,.66c0,0-1.58,1.07-2.45,1.63s-.62.18-.62.18S24.12,72.27,22.67,70.27Z"/><path class="cls-1" d="M32.45,73.73a22.88,22.88,0,0,1,7.31.07"/><path class="cls-1" d="M32.76,75.56a15.36,15.36,0,0,1,6.46,2.54"/></svg>