<svg id="圖層_1" data-name="圖層 1" xmlns="http://www.w3.org/2000/svg" viewBox="0 0 469.4 576.95"><defs><style>.cls-1,.cls-5,.cls-7,.cls-8{fill:#e4d7ca;}.cls-1,.cls-4,.cls-5,.cls-8{stroke:#a33a3a;}.cls-1,.cls-3,.cls-4,.cls-5,.cls-8{stroke-miterlimit:10;}.cls-1{stroke-width:4px;}.cls-2,.cls-3,.cls-4{fill:#a33a3a;}.cls-3{stroke:#e4d7ca;}.cls-6{fill:none;}.cls-8{stroke-width:2px;}</style></defs><title>phone</title><g id="圖層_5" data-name="圖層 5"><path class="cls-1" d="M78,138s7.34-16,24.34-21,38-9,62-25a132.67,132.67,0,0,0,17-16,58.56,58.56,0,0,1,25-17,47.32,47.32,0,0,1,15-3S300.68,72.82,302,70.42,316.32,52,304.32,34s-49-18-61-16-46,2-65,11-39,13-64,29-59,39-72,55c0,0-26,26-30,42s-6,40,8,48,26.4,3.73,26.4,3.73Z"/><ellipse class="cls-1" cx="262.41" cy="63.97" rx="41.03" ry="33.15" transform="translate(-6.34 37.05) rotate(-7.98)"/><path class="cls-2" d="M299.45,71.43s3-14-6.8-17.6-31.2-3.41-43,9S241.24,79,241.24,79s2.2,10.4,16,12l-12.4-1.8s-15-10-5.79-20.61,19.8-21.39,32-21,17.61-1.79,24.2,4.41S300.69,59.83,299.45,71.43Z"/><path class="cls-3" d="M106.32,89l-38,27s-1,4,1,3S106.32,89,106.32,89Z"/><path class="cls-3" d="M129.32,75c3-1,32-17,39-19s40-14,42-14,2,4,2,4-30,6-36,9S129.32,75,129.32,75Z"/><path class="cls-1" d="M195.32,237s-10,4-12,13l-24,6s-12,5-16,17-14,38-14,38l-6,14-12,14-52,50s-6,9-6,20,6,50,6,50,5,18,23,17,184-28,184-28,33-10,42-30l64-78,6-6s-4-48-6-51-7-2-7-2,2-3,2-4-3-3-7-6-13-13-16-19-9-23-9-26-5-17-25-13Z"/><path class="cls-2" d="M183.32,250s84-17,85-17,10-2,13,7a28.39,28.39,0,0,0,1,6c1,4,2,8,6,6s18-13,18-13l9-6s2-2,2-4-2-6-1-10,.21-3.21,3.11-6.61c-.11-.39,1.68.22,1.68.22a2.38,2.38,0,0,0-1.79,2.39c0,2-1,3,0,8s1,7-1,10-19,14-19,14l-9,7s-7,3-9-3-1-14-5-15-6-1-12,0-52,9-52,9Z"/><path class="cls-2" d="M281.32,239c1,0,3,1,3,0s-2-3,0-4,9-3,10-2a3.09,3.09,0,0,1,1,2l21-5-1,3-19,4,1,6a2,2,0,0,1-2,2c-2,0-8,3-9,1a13.43,13.43,0,0,1-1-5h-3C281.32,241,281.32,239,281.32,239Z"/><path class="cls-4" d="M199.32,253s-38,7-51,36-16,53,14,59,62-11,72-20S274.32,251,199.32,253Z"/><path class="cls-5" d="M199.05,255.39S163,262,150.6,289.59s-15.2,50.35,13.3,56,58.9-10.45,68.4-19S270.3,253.49,199.05,255.39Z"/><path class="cls-4" d="M207.32,260s-11,8-6,13,14,0,14,0S225.32,258,207.32,260Z"/><path class="cls-4" d="M226.32,272s-11,8-6,13,14,0,14,0S244.32,270,226.32,272Z"/><path class="cls-2" d="M230.32,294s-11,8-6,13,14,0,14,0S248.32,292,230.32,294Z"/><path class="cls-4" d="M220.32,313s-11,8-6,13,14,0,14,0S238.32,311,220.32,313Z"/><path class="cls-2" d="M199.32,326s-11,8-6,13,14,0,14,0S217.32,324,199.32,326Z"/><path class="cls-4" d="M155.32,320s-11,8-6,13,14,0,14,0S173.32,318,155.32,320Z"/><path class="cls-4" d="M155.32,300s-11,8-6,13,14,0,14,0S173.32,298,155.32,300Z"/><path class="cls-4" d="M163.32,280s-11,8-6,13,14,0,14,0S181.32,278,163.32,280Z"/><path class="cls-4" d="M182.32,264s-11,8-6,13,14,0,14,0S200.32,262,182.32,264Z"/><path class="cls-4" d="M174.32,328s-11,8-6,13,14,0,14,0S192.32,326,174.32,328Z"/><path class="cls-2" d="M193.32,284s-25,10-20,30,33,4,36,0,12-18,2-24S193.32,284,193.32,284Z"/><path class="cls-2" d="M123.32,325c-1,3-22,34-22,34l-2-1Z"/><path class="cls-2" d="M114.32,368c1,0,118-20,118-20v4Z"/><path class="cls-2" d="M274.49,235.55A57.74,57.74,0,0,0,270.32,247c-1,5-8,36-8,37s-10,57-10,57l3,1,6-38,6-36,6-24,3-8Z"/><path class="cls-2" d="M342.32,264c-1,1-68,60-68,60s2,4,2,3S342.32,264,342.32,264Z"/><path class="cls-2" d="M359.32,286l-77,80s0,5,2,3S359.32,286,359.32,286Z"/><path class="cls-2" d="M59.32,408c1,0,200-32,200-32v4C259.32,381,59.32,408,59.32,408Z"/><rect class="cls-2" x="130.35" y="417.98" width="68" height="21" transform="translate(-62.09 29.31) rotate(-8.58)"/><path class="cls-6" d="M385.9,315.55a4.49,4.49,0,0,1-2.4-2.1l.15,2.25,1.64,4,3.73,1.55S387.77,316.27,385.9,315.55Z"/><path class="cls-6" d="M317.25,35.07a4.36,4.36,0,0,1-1,3l2-1,3-3v-4S317.25,33.05,317.25,35.07Z"/><path class="cls-6" d="M328.79,36.07a4.36,4.36,0,0,1-1,3l2-1,3-3v-4S328.79,34.05,328.79,36.07Z"/><path class="cls-6" d="M340.79,36.07a4.36,4.36,0,0,1-1,3l2-1,3-3v-4S340.79,34.05,340.79,36.07Z"/><path class="cls-6" d="M352.79,39.07a4.36,4.36,0,0,1-1,3l2-1,3-3v-4S352.79,37.05,352.79,39.07Z"/><path class="cls-6" d="M365.11,44.12a4.39,4.39,0,0,1-1.66,2.73l2.2-.54L369.27,44l.91-3.93S365.57,42.16,365.11,44.12Z"/><path class="cls-6" d="M373.69,53.69a4.43,4.43,0,0,1-2.21,2.3h2.25l4-1.44,1.73-3.64S374.57,51.87,373.69,53.69Z"/><path class="cls-6" d="M381.05,65.17a4.44,4.44,0,0,1-2.86,1.38l2.14.72h4.28l2.86-2.84S382.48,63.75,381.05,65.17Z"/><path class="cls-6" d="M378.69,78.17a4.46,4.46,0,0,1-3.14.51L377.38,80l4.08,1.27L385,79.39S380.51,77.23,378.69,78.17Z"/><path class="cls-6" d="M375.4,91.55a4.45,4.45,0,0,1-3-1l1,2,3,3h4S377.42,91.55,375.4,91.55Z"/><path class="cls-6" d="M367.4,99.55a4.45,4.45,0,0,1-3-1l1,2,3,3h4S369.42,99.55,367.4,99.55Z"/><path class="cls-6" d="M359.4,108.55a4.45,4.45,0,0,1-3-1l1,2,3,3h4S361.42,108.55,359.4,108.55Z"/><path class="cls-6" d="M353.4,118.55a4.45,4.45,0,0,1-3-1l1,2,3,3h4S355.42,118.55,353.4,118.55Z"/><path class="cls-6" d="M348.4,129.55a4.45,4.45,0,0,1-3-1l1,2,3,3h4S350.42,129.55,348.4,129.55Z"/><path class="cls-6" d="M346.69,154.24a4.39,4.39,0,0,1-2.19,2.32l2.26-.07,4-1.47,1.7-3.67S347.49,152.41,346.69,154.24Z"/><path class="cls-6" d="M371.2,170.61a4.38,4.38,0,0,1-1.89,2.57l2.23-.34,3.81-1.94,1.24-3.84S371.82,168.69,371.2,170.61Z"/><path class="cls-6" d="M382,175.81a4.43,4.43,0,0,1-1.69,2.74l2.2-.51,3.65-2.22,1-3.93S382.46,173.85,382,175.81Z"/><path class="cls-6" d="M394,181.81a4.43,4.43,0,0,1-1.69,2.74l2.2-.51,3.65-2.22,1-3.93S394.46,179.85,394,181.81Z"/><path class="cls-6" d="M406.86,185.09a4.32,4.32,0,0,1-1.45,2.84l2.15-.69L411,184.7l.61-4S407.16,183.1,406.86,185.09Z"/><path class="cls-6" d="M419.86,191.09a4.32,4.32,0,0,1-1.45,2.84l2.15-.69L424,190.7l.61-4S420.16,189.1,419.86,191.09Z"/><path class="cls-6" d="M430.94,196a4.42,4.42,0,0,1-1.61,2.76l2.18-.58,3.58-2.34.83-4S431.35,194,430.94,196Z"/><path class="cls-6" d="M441.2,203.77a4.36,4.36,0,0,1-1.87,2.58l2.23-.36,3.79-2,1.21-3.85S441.81,201.84,441.2,203.77Z"/><path class="cls-6" d="M449.76,213.55a4.43,4.43,0,0,1-2.28,2.23h2.26l4.07-1.32,1.83-3.59S450.69,211.72,449.76,213.55Z"/><path class="cls-6" d="M455.76,223.55a4.43,4.43,0,0,1-2.28,2.23h2.26l4.07-1.32,1.83-3.59S456.69,221.72,455.76,223.55Z"/><path class="cls-6" d="M460.1,234.22a4.49,4.49,0,0,1-3.08.8l1.94,1.14,4.18.9,3.39-2.2S461.8,233.12,460.1,234.22Z"/><path class="cls-6" d="M460.09,247.45a4.45,4.45,0,0,1-3.11-.73l1.19,1.92,3.29,2.74,4-.36S462.1,247.27,460.09,247.45Z"/><path class="cls-6" d="M454.69,258.62a4.46,4.46,0,0,1-3-1.14l1,2.07,2.89,3.16,4,.17S456.74,258.71,454.69,258.62Z"/><path class="cls-6" d="M447.81,270.3a4.45,4.45,0,0,1-2.49-2l.25,2.24,1.8,3.88,3.79,1.39S449.69,271,447.81,270.3Z"/><path class="cls-6" d="M437.9,278.55a4.49,4.49,0,0,1-2.4-2.1l.15,2.25,1.64,4,3.73,1.55S439.77,279.27,437.9,278.55Z"/><path class="cls-6" d="M426.9,286.55a4.49,4.49,0,0,1-2.4-2.1l.15,2.25,1.64,4,3.73,1.55S428.77,287.27,426.9,286.55Z"/><path class="cls-6" d="M416.9,293.55a4.49,4.49,0,0,1-2.4-2.1l.15,2.25,1.64,4,3.73,1.55S418.77,294.27,416.9,293.55Z"/><path class="cls-6" d="M406.9,299.55a4.49,4.49,0,0,1-2.4-2.1l.15,2.25,1.64,4,3.73,1.55S408.77,300.27,406.9,299.55Z"/><path class="cls-6" d="M394.9,306.55a4.49,4.49,0,0,1-2.4-2.1l.15,2.25,1.64,4,3.73,1.55S396.77,307.27,394.9,306.55Z"/><path class="cls-6" d="M346.52,140.11a4.48,4.48,0,0,1-3.18-.16l1.51,1.67,3.73,2.1,3.88-1.08S348.47,139.55,346.52,140.11Z"/><path class="cls-7" d="M340.09,156.63s3.16,3.59,3.57,2.79.42-4.79.42-4.79v-1Z"/><path class="cls-6" d="M356.69,164.24a4.39,4.39,0,0,1-2.19,2.32l2.26-.07,4-1.47,1.7-3.67S357.49,162.41,356.69,164.24Z"/><path class="cls-8" d="M463.4,244.69a10,10,0,0,0-6.68-.07,19.64,19.64,0,0,1-1.11-6c1.51,1.7,4.56,2.57,7.87,2,4.39-.73,7.58-3.64,7.1-6.53s-4.42-4.65-8.81-3.93a10.51,10.51,0,0,0-5.37,2.45,22.87,22.87,0,0,1-2.34-3.09c2.15.73,5.25,0,7.86-2.15,3.45-2.81,4.77-7,2.88-9.22s-6.16-1.81-9.6,1a10.56,10.56,0,0,0-3.42,4.81,20.08,20.08,0,0,1-3.72-4.44c2.15.73,5.25,0,7.86-2.15,3.45-2.81,4.77-7,2.88-9.22s-6.16-1.81-9.6,1a10.34,10.34,0,0,0-3.46,5,18.51,18.51,0,0,1-5.17-4.14c2.25.34,5.16-.94,7.36-3.47,2.93-3.36,3.51-7.64,1.3-9.56s-6.37-.76-9.3,2.6a9.75,9.75,0,0,0-2.63,6.55c-2.33-.55-4.76-2.41-6.32-3.81,2.26.1,5-1.46,6.93-4.17,2.59-3.63,2.78-8,.36-9.65s-6.41-.13-9,3.5a9.53,9.53,0,0,0-1.94,7c-1.84.26-4-.66-5.78-1.79a9.74,9.74,0,0,0,5.39-4.37c2.37-3.77,2.3-8.09-.18-9.65s-6.41.23-8.79,4a10.83,10.83,0,0,0-1.7,4.94l0,0-2.68,1.78c0,.07.07.13.1.2-2.11,0-4.48-1.35-6.29-2.65,2.24,0,4.84-1.75,6.59-4.54,2.37-3.75,2.3-8.06-.18-9.61s-6.38.23-8.75,4a10.21,10.21,0,0,0-1.71,5.92l0,0-.12.08-.83-1.06c-1.82,2.52-5.07,2.4-7.23,2a9.69,9.69,0,0,0,5.84-3.89c2.68-3.53,3-7.82.67-9.59s-6.39-.34-9.08,3.19c-2.29,3-2.84,6.56-1.52,8.65l0,0c-4.47,1.5-8.39-4-8.39-4l-.11-.31c2.14-.08,4.64-1.52,6.49-4,2.68-3.52,3-7.82.67-9.59s-6.39-.34-9.08,3.2c-2.06,2.7-2.71,5.84-1.86,8-2.92.3-6-1.73-7.38-2.79a9.27,9.27,0,0,0,6.71-3.44c2.94-3.32,3.57-7.58,1.38-9.53s-6.34-.8-9.28,2.51c-2.32,2.62-3.19,5.82-2.39,8h-5v-.1a5.31,5.31,0,0,1-.68.1H362c-3.07.19-5.46-2.73-6.39-4.07,2.16.52,5.1-.38,7.53-2.54,3.32-2.95,4.45-7.07,2.5-9.29s-6.2-1.56-9.52,1.39a10.24,10.24,0,0,0-3.32,5.38c-3.17,0-5.17-3-6.08-4.76a9.77,9.77,0,0,0,6.46-2.69c3.31-2.95,4.44-7.06,2.5-9.28s-6.2-1.57-9.52,1.38a11.57,11.57,0,0,0-2.51,3.15c-1.83-2.48-1.8-6.45-1.6-8.62a10.27,10.27,0,0,0,5.76,2.66c4.42.63,8.32-1.22,8.73-4.12.31-2.13-1.36-4.23-4-5.45,2.22-.09,4-1,4.72-2.61,1.16-2.68-1.21-6.3-5.3-8.07a9.34,9.34,0,0,0-7.52-.3c-.85-3,1.59-5.94,2.75-7.13.25,2.3,2.39,4.79,5.56,6.17,4.09,1.77,8.35,1,9.51-1.67s-1.21-6.3-5.3-8.07a9.86,9.86,0,0,0-6.69-.62c0-2.52,1.93-4.8,2.92-5.81.25,2.3,2.39,4.79,5.56,6.17,4.09,1.77,8.35,1,9.51-1.67s-1.21-6.3-5.3-8.07a11.21,11.21,0,0,0-4.51-1,10.74,10.74,0,0,1,2.74-4.47c.25,2.3,2.39,4.79,5.56,6.17,4.09,1.77,8.35,1,9.51-1.67s-1.21-6.3-5.3-8.07a11.14,11.14,0,0,0-4.18-.94,11.87,11.87,0,0,1,2.41-3.49c.25,2.3,2.39,4.79,5.56,6.17,4.09,1.77,8.35,1,9.51-1.67s-1.21-6.3-5.3-8.07a10.73,10.73,0,0,0-5.15-.92,11,11,0,0,1,.45-5.46c1.48,1.53,4.22,2.45,7.24,2.25,4.42-.29,7.88-2.94,7.67-5.86s-4-5-8.43-4.71a11,11,0,0,0-4.29,1.14,12.21,12.21,0,0,1,.52-5.39L377,70c1.68,1.75,5.18,2.17,8.65.8,4.16-1.64,6.66-5.12,5.6-7.85s-5.28-3.64-9.43-2a10.83,10.83,0,0,0-4.52,3.23c-2.92-.19-4.94-3.22-5.7-4.56,2.19,1,5.58.2,8.34-2.2,3.36-2.92,4.53-7.08,2.61-9.29s-6.2-1.64-9.57,1.29a10.92,10.92,0,0,0-3,4.2c-2.52-.14-4.71-2.26-5.62-3.28,2.35.54,5.5-1,7.68-3.93,2.65-3.58,2.9-7.86.55-9.63s-6.41-.26-9.06,3.32A10.29,10.29,0,0,0,361.38,46c-3.05,1.25-7.08-.74-7.08-.74h0c2.18-.44,4.46-2.49,5.75-5.46,1.78-4.08,1.06-8.35-1.63-9.52s-6.3,1.19-8.09,5.27a9.52,9.52,0,0,0-.46,7.22c-3.09,1.72-7.57-.5-7.57-.5h0c2.18-.44,4.46-2.49,5.75-5.46,1.78-4.08,1.06-8.35-1.63-9.52s-6.3,1.19-8.09,5.27-1.05,8.29,1.59,9.48l-.62.66-.44-.65c-3,3-8.56.23-8.56.23h0c2.18-.44,4.46-2.49,5.75-5.46,1.78-4.08,1.06-8.35-1.63-9.52s-6.3,1.19-8.09,5.27c-1.53,3.49-1.2,7.11.61,8.81-3.07,2.44-8.18-.09-8.18-.09h0c2.18-.43,4.46-2.48,5.76-5.46,1.79-4.08,1.05-8.35-1.63-9.52s-6.31,1.19-8.09,5.27c-1.28,2.94-1.26,6-.14,7.86l-6.74,1.82.93,3.48,6.6-2.67c5.69,6.4,11.15,3.84,13.11,2.56a9.24,9.24,0,0,0,12.3.44l-.28-.43c4.32,3.69,8.32,2.67,10.52,1.56,3.65,4,7.19,4.39,9.77,3.81,2,6,6.1,7.18,8.77,7.28,0,0,0,.06,0,.09l-1.43.2c.33,6.9,4.21,9.16,6.92,9.9-3.88,4.76-3.13,8.72-1.81,11.18l-.08.26c-3.7,3.84-4.06,7.29-3.42,9.86-5.48,2-7.09,5.37-7.4,8.12l-.14-.28c-6.48,2.13-7.85,6.23-7.92,9.16l-.08-.16c-7.74,2.54-8.2,7.89-7.83,10.71-7.51,3.43-6.15,10-5.7,11.49-6.09,4-3.23,12.58-2.24,15.06-4,6.14,1.29,13.69,1.29,13.69l3.56-2.67a5.69,5.69,0,0,0-.26,4.74c-.32,7.55,5.65,9.88,8.81,10.59,1.41,8.84,7.85,9.34,10.08,9.24v.16l5.94-.09.11-.09a9.25,9.25,0,0,0,11,5.53l.16-.84c3,10.06,11.46,7.87,12.32,7.62,4.47,3.22,8.21,2.37,10.58,1,4,5.92,10.19,5.66,13.07,5.15a12.15,12.15,0,0,0,11,5.22,12,12,0,0,0,9.59,7.06,12.07,12.07,0,0,0,7.62,7.86c.63,5.25,3.25,8.15,6,9.74a13.22,13.22,0,0,0,3.25,7.79,12.33,12.33,0,0,0,.13,10.24,12,12,0,0,0-4.09,9.67c-5.42,3.45-6.38,8.11-6.16,11.6l-.32-.79c-6,1.25-8.66,4.71-9.85,7.92-6.09,1.09-8.88,4.57-10.14,7.78-6.29.67-9.21,4.36-10.56,7.57l-.14-.38c-5.11.87-7.93,3.41-9.47,6.09-6.17,1.21-8.85,4.91-10,8.19-.14,0-.28,0-.41.05l-.12-.33c-7.24,1.23-9.88,5.81-10.81,9.41-10.45,2.9-9.49,13.59-9.49,13.59l3.15-.25c-1.05-3.23,2.76-6.77,5.22-8.65a10.22,10.22,0,0,0,2.89,5.69c3.08,3.22,7.3,4.17,9.41,2.14s1.33-6.28-1.76-9.49a10.07,10.07,0,0,0-5.72-3.15,19.29,19.29,0,0,1,4.18-4.19,10.22,10.22,0,0,0,2.89,5.69c3.08,3.22,7.3,4.17,9.41,2.14s1.33-6.28-1.76-9.49a11.16,11.16,0,0,0-3.49-2.49,17.63,17.63,0,0,1,2.39-2.56,10.28,10.28,0,0,0,3.15,7.17c3.31,3.46,7.85,4.49,10.12,2.3s1.43-6.75-1.89-10.2a11.89,11.89,0,0,0-4.54-3,24.91,24.91,0,0,1,5.64-4.91l.18-.07a13,13,0,0,0-.2,1.68h.06a9.72,9.72,0,0,0,2.93,6.43c3.08,3.22,7.3,4.17,9.41,2.14,1.7-1.6,1.53-4.64-.17-7.44,3.38,3.21,7.78,4.09,10,1.93s1.49-7-2-10.61a11.85,11.85,0,0,0-5.5-3.34c2-3.14,6.22-5.72,6.22-5.72h0a13.57,13.57,0,0,0,0,2.79l.14,0a10.48,10.48,0,0,0,2.83,5.27c3.08,3.22,7.3,4.17,9.41,2.14s1.33-6.28-1.76-9.49a9.63,9.63,0,0,0-6.38-3.2,24.09,24.09,0,0,1,5.61-5.41l.31-.11c-.75,2.26.39,5.51,3,8,3.22,3.08,7.47,3.86,9.49,1.75s1.06-6.33-2.16-9.41a9.79,9.79,0,0,0-6.26-2.93,17,17,0,0,1,2.73-6.65c.25,2.26,2.25,4.73,5.26,6.2,4,1.95,8.29,1.41,9.57-1.22s-.91-6.35-4.92-8.31a10.16,10.16,0,0,0-6.15-1,19.18,19.18,0,0,1,1.78-6c.56,2.2,2.86,4.37,6.05,5.43,4.25,1.41,8.4.3,9.33-2.48S467.65,246.1,463.4,244.69Zm-3.3-10.47c1.7-1.1,6.43.64,6.43.64l-3.39,2.2-.78-.17v-1.33a4.58,4.58,0,0,1-3.48-.74A4.33,4.33,0,0,0,460.1,234.22Zm-4.35-10.68c.91-1.8,5.88-2.66,5.88-2.66l-1.83,3.57-3.44,1.11h0a4,4,0,0,1-2.24-.14A4.43,4.43,0,0,0,455.75,223.54Zm-6-10c.91-1.8,5.88-2.66,5.88-2.66l-1.83,3.57-3.88,1.26-.2-1.17a4,4,0,0,1-.82.24A4.41,4.41,0,0,0,449.75,213.54Zm-96.32-95c2,0,5.06,4,5.06,4h-4.06l-3-3-1-2A4.45,4.45,0,0,0,353.43,118.55ZM378,78.5a4.19,4.19,0,0,0,.71-.33c1.79-.94,6.35,1.22,6.35,1.22l-3.58,1.88L377.41,80l-.17-.13,1.18-1A4.79,4.79,0,0,1,378,78.5ZM316.32,41l-.06-.08.13.07v0Zm1-5.93c0-2,4-5,4-5v4l-3,3-2,1A4.36,4.36,0,0,0,317.28,35.06Zm11.54,1c0-2,4-5,4-5v4l-3,3-2,1A4.36,4.36,0,0,0,328.82,36.06Zm12,0c0-2,4-5,4-5v4l-3,3-2,1A4.36,4.36,0,0,0,340.82,36.06Zm12,3c0-2,4-5,4-5v4l-3,3-2,1A4.36,4.36,0,0,0,352.82,39.06Zm12.33,5.06c.46-2,5.07-4,5.07-4l-1,3.92-3.58,2.27-1.67.41-.15-.22A4.39,4.39,0,0,0,365.15,44.12Zm8.6,9.57c.86-1.82,5.81-2.82,5.81-2.82l-1.77,3.68-4,1.44H372l0-.25A4.44,4.44,0,0,0,373.75,53.69Zm7.3,11.44c1.43-1.42,6.42-.69,6.42-.69l-2.86,2.88h-4.28l-2.14-.77A4.42,4.42,0,0,0,381.05,65.13Zm-6.23,26.39a4.16,4.16,0,0,0,.61,0c2,0,5.06,4,5.06,4h-4.06l-3-3Zm-8.45,7.93a4.7,4.7,0,0,0,1.06.1c2,0,5.06,4,5.06,4h-4.06l-2.95-3,1.18-.22A5.53,5.53,0,0,1,366.37,99.45Zm-8,9a4.52,4.52,0,0,0,1.1.11c2,0,5.06,4,5.06,4h-4.06l-3-3-.43-.87Zm-9.78,35.28-3.73-2.1L343.31,140a4.48,4.48,0,0,0,3.18.16c1.95-.54,5.94,2.53,5.94,2.53Zm-.12-14.17c2,0,5.06,4,5.06,4h-4.06l-3-3-1-2A4.45,4.45,0,0,0,348.43,129.55Zm-7.15,9.69a21.69,21.69,0,0,1,1.05-7.86,9.22,9.22,0,0,0,5.2,5.29C344.78,136.69,342.42,137.68,341.28,139.24Zm3.4,17.46a4.45,4.45,0,0,0,2.19-2.31c.83-1.83,5.76-2.88,5.76-2.88l-1.71,3.65-4,1.47Zm10,10a4.36,4.36,0,0,0,2.18-2.31c.84-1.82,5.76-2.88,5.76-2.88l-1.7,3.66-4,1.46Zm14.83,6.64a4.38,4.38,0,0,0,1.88-2.56c.62-1.91,5.37-3.54,5.37-3.54L375.5,171,371.7,173Zm10.11,8.09,0-.2.14.12Zm.83-2.82a4.37,4.37,0,0,0,1.68-2.7c.48-2,5.11-3.94,5.11-3.94l-1,3.92-3.64,2.21Zm12,6a4.37,4.37,0,0,0,1.68-2.7c.48-2,5.11-3.94,5.11-3.94l-1,3.92L394.57,184Zm14.52.58c.3-2,4.73-4.37,4.73-4.37l-.61,4-3.42,2.53-2.15.69A4.38,4.38,0,0,0,406.9,185.13Zm11.51,8.8a4.32,4.32,0,0,0,1.45-2.84c.3-2,4.75-4.38,4.75-4.38l-.61,4-3.44,2.54ZM430.94,196c.41-2,5-4.11,5-4.11l-.85,3.95-3.58,2.34-2.18.58A4.42,4.42,0,0,0,430.94,196Zm9.52,9.84a3.8,3.8,0,0,1-.92.35,4.37,4.37,0,0,0,1.66-2.42c.61-1.93,5.36-3.61,5.36-3.61L445.35,204l-3.79,2-1,.16ZM385.9,315.46c1.87.77,3.12,5.66,3.12,5.66l-3.73-1.51-1.64-4-.09-1.43.06,0-.08-.23,0-.57A4.49,4.49,0,0,0,385.9,315.46ZM398,312.12l-3.73-1.51L393.23,308l1.15-.09a3.89,3.89,0,0,1-.12-1.76,4.18,4.18,0,0,0,.64.31C396.77,307.23,398,312.12,398,312.12Zm10.19-5.29-4-1.62L402.86,302l.52,0a3.9,3.9,0,0,1-.06-2.09,4.71,4.71,0,0,0,1.54.92C406.87,301.57,408.21,306.83,408.21,306.83Zm8.08-9.22-1.64-4-.15-2.25a4.49,4.49,0,0,0,2.4,2.1c1.87.77,3.12,5.66,3.12,5.66Zm-1.23-8.19a17.84,17.84,0,0,1,4-3.39,8.94,8.94,0,0,0,1.55,6A9.57,9.57,0,0,0,415.06,289.42Zm11-2.49c2.09.86,3.49,6.33,3.49,6.33l-4.17-1.69-1.83-4.47V287l.84-.06a3.83,3.83,0,0,1-.17-1.2A5,5,0,0,0,426.06,286.93Zm11.84-8.47c1.87.77,3.12,5.66,3.12,5.66l-3.73-1.51-1.64-4-.15-2.25A4.49,4.49,0,0,0,437.9,278.46Zm8.62-8.82a4.43,4.43,0,0,0,1.29.68c1.9.7,3.35,5.53,3.35,5.53l-3.79-1.41-1.8-3.88-.05-.45Zm8.24-11c2,.09,4.86,4.25,4.86,4.25l-4.06-.18-2.65-2.92.51-.32a4,4,0,0,1-.9-1.43A4.5,4.5,0,0,0,454.76,258.63Zm6.7-7.25-2.46-2,.8-1.38a3.61,3.61,0,0,1-1.09-.55,4.27,4.27,0,0,0,1.38,0c2-.18,5.38,3.57,5.38,3.57Z"/><ellipse class="cls-7" cx="215.82" cy="544.99" rx="148" ry="30.5"/><ellipse class="cls-1" cx="50.41" cy="167.97" rx="41.03" ry="33.15" transform="translate(-118.4 120.44) rotate(-57.57)"/><path class="cls-2" d="M36.32,201s-13-6-10-16,16-27,33-29,18,3,18,3,7,8,0,20l6-11s1-18-13-17-29,3-36,13-12,13-11,22S26.32,195,36.32,201Z"/></g></svg>