<svg width="444" height="200" viewBox="0 0 444 200" fill="none" xmlns="http://www.w3.org/2000/svg">
<path d="M96.5836 92.0481C84.5516 92.0481 74.3969 89.8294 66.1196 85.3921L72.5196 65.5521C81.3089 68.7094 89.1596 70.2881 96.0716 70.2881C99.8262 70.2881 102.557 69.8614 104.264 69.0081C106.056 68.0694 106.952 66.7041 106.952 64.9121C106.952 63.7175 106.482 62.6934 105.544 61.8401C104.605 60.9014 102.728 59.8774 99.9116 58.7681C97.0956 57.6588 92.8716 56.2934 87.2396 54.6721C80.3276 52.6241 74.9516 49.2961 71.1116 44.6881C67.2716 39.9948 65.3516 34.6188 65.3516 28.5601C65.3516 19.1734 68.4236 12.0908 74.5676 7.31211C80.7969 2.44811 89.1596 0.0161133 99.6556 0.0161133C105.117 0.0161133 110.493 0.613447 115.784 1.80811C121.074 2.91744 125.768 4.58144 129.864 6.80011L122.952 26.1281C118.173 24.5068 113.992 23.3548 110.408 22.6721C106.909 21.9041 103.496 21.5201 100.168 21.5201C94.5356 21.5201 91.7196 23.0561 91.7196 26.1281C91.7196 27.6641 92.6156 28.9868 94.4076 30.0961C96.2849 31.1201 100.082 32.4428 105.8 34.0641C114.76 36.4534 121.544 40.1228 126.152 45.0721C130.76 49.9361 133.064 55.7815 133.064 62.6081C133.064 72.0801 129.992 79.3761 123.848 84.4961C117.704 89.5308 108.616 92.0481 96.5836 92.0481Z" fill="#E4D7CA"/>
<path d="M158.766 21.3921H140.462V1.93611H206.894V21.3921H188.59V90.0001H158.766V21.3921Z" fill="#E4D7CA"/>
<path d="M229.085 1.93611H267.997L293.469 90.0001H263.389L260.061 73.1041H237.277L233.565 90.0001H204.765L229.085 1.93611ZM256.989 57.3601L248.669 18.8321L239.965 57.3601H256.989Z" fill="#E4D7CA"/>
<path d="M312.21 65.5521L286.866 1.93611H313.618L326.034 41.4881L338.194 1.93611H366.354L339.73 65.5521V90.0001H312.21V65.5521Z" fill="#E4D7CA"/>
<path d="M19.0159 128.392H0.711914V108.936H67.1439V128.392H48.8399V197H19.0159V128.392Z" fill="#E4D7CA"/>
<path d="M121.947 199.048C113.499 199.048 105.947 197.427 99.2909 194.184C92.7202 190.941 87.6002 186.419 83.9309 180.616C80.2616 174.728 78.4269 168.029 78.4269 160.52V108.936H107.355V160.52C107.355 165.64 108.592 169.48 111.067 172.04C113.542 174.6 117.168 175.88 121.947 175.88C126.726 175.88 130.352 174.6 132.827 172.04C135.302 169.395 136.539 165.555 136.539 160.52V108.936H165.467V160.52C165.467 168.029 163.632 174.728 159.963 180.616C156.294 186.419 151.131 190.941 144.475 194.184C137.904 197.427 130.395 199.048 121.947 199.048Z" fill="#E4D7CA"/>
<path d="M181.32 108.936H207.048L242.12 156.424V108.936H265.032V197H239.432L204.104 151.176V197H181.32V108.936Z" fill="#E4D7CA"/>
<path d="M281.695 108.936H343.519V128.392H312.799V144.392H340.831V160.52H312.799V177.544H343.519V197H281.695V108.936Z" fill="#E4D7CA"/>
<path d="M357.82 108.936H396.092C405.308 108.936 413.457 110.771 420.54 114.44C427.708 118.109 433.255 123.229 437.18 129.8C441.191 136.371 443.196 143.88 443.196 152.328C443.196 161.203 441.233 169.011 437.308 175.752C433.468 182.493 427.964 187.741 420.796 191.496C413.713 195.165 405.479 197 396.092 197H357.82V108.936ZM394.812 173.96C401.212 173.96 406.076 171.955 409.404 167.944C412.817 163.848 414.524 158.557 414.524 152.072C414.524 145.928 412.86 141.064 409.532 137.48C406.289 133.811 401.383 131.976 394.812 131.976H386.108V173.96H394.812Z" fill="#E4D7CA"/>
</svg>
